<?xml version="1.0" encoding="UTF-8" standalone="no"?>
<!-- Created with Inkscape (http://www.inkscape.org/) -->

<svg
   width="1024"
   height="1024"
   viewBox="0 0 270.93332 270.93333"
   version="1.1"
   id="svg1"
   sodipodi:docname="ecc-title.svg"
   inkscape:version="1.4.2 (f4327f4, 2025-05-13)"
   inkscape:export-filename="ECC-logo-bg_white-nosub.png"
   inkscape:export-xdpi="96"
   inkscape:export-ydpi="96"
   xmlns:inkscape="http://www.inkscape.org/namespaces/inkscape"
   xmlns:sodipodi="http://sodipodi.sourceforge.net/DTD/sodipodi-0.dtd"
   xmlns="http://www.w3.org/2000/svg"
   xmlns:svg="http://www.w3.org/2000/svg">
  <sodipodi:namedview
     id="namedview1"
     pagecolor="#ffffff"
     bordercolor="#898989"
     borderopacity="1"
     inkscape:showpageshadow="false"
     inkscape:pageopacity="0"
     inkscape:pagecheckerboard="false"
     inkscape:deskcolor="#333333"
     inkscape:document-units="px"
     labelstyle="default"
     inkscape:clip-to-page="true"
     inkscape:zoom="0.70710678"
     inkscape:cx="792.6667"
     inkscape:cy="565.68543"
     inkscape:window-width="2560"
     inkscape:window-height="1411"
     inkscape:window-x="-9"
     inkscape:window-y="-9"
     inkscape:window-maximized="1"
     inkscape:current-layer="g16"
     showgrid="true"
     inkscape:export-bgcolor="#ffffffff">
    <inkscape:grid
       id="grid67"
       units="px"
       originx="0"
       originy="0"
       spacingx="1.0583333"
       spacingy="1.0583333"
       empcolor="#0099e5"
       empopacity="0.30196078"
       color="#0099e5"
       opacity="0.14901961"
       empspacing="8"
       dotted="false"
       gridanglex="30"
       gridanglez="30"
       visible="true"
       enabled="false" />
  </sodipodi:namedview>
  <defs
     id="defs1">
    <rect
       x="64"
       y="239.99998"
       width="992"
       height="592"
       id="rect30" />
    <rect
       x="181.25"
       y="748.72632"
       width="25.000004"
       height="96.586182"
       id="rect53" />
    <rect
       x="181.25"
       y="731.25"
       width="751.5625"
       height="303.125"
       id="rect52" />
    <rect
       x="181.25"
       y="731.25"
       width="751.5625"
       height="303.125"
       id="rect66" />
    <rect
       x="181.25"
       y="748.72632"
       width="25.000004"
       height="96.586182"
       id="rect67" />
    <rect
       x="181.25"
       y="731.25"
       width="751.5625"
       height="303.125"
       id="rect78" />
    <rect
       x="181.25"
       y="748.72632"
       width="25.000004"
       height="96.586182"
       id="rect79" />
    <rect
       x="181.25"
       y="731.25"
       width="751.5625"
       height="303.125"
       id="rect25" />
    <rect
       x="181.25"
       y="748.72632"
       width="25.000004"
       height="96.586182"
       id="rect26" />
    <rect
       x="181.25"
       y="731.25"
       width="751.5625"
       height="303.125"
       id="rect32" />
    <rect
       x="181.25"
       y="731.25"
       width="751.5625"
       height="303.125"
       id="rect16" />
    <rect
       x="64"
       y="239.99998"
       width="992"
       height="592"
       id="rect17" />
    <rect
       x="181.25"
       y="731.25"
       width="751.5625"
       height="303.125"
       id="rect23" />
  </defs>
  <g
     inkscape:label="Subtext"
     inkscape:groupmode="layer"
     id="g16"
     style="display:inline">
    <rect
       style="font-variation-settings:normal;opacity:1;vector-effect:none;fill:#ffffff;fill-opacity:1;fill-rule:evenodd;stroke-width:0.97;stroke-linecap:round;stroke-linejoin:round;stroke-miterlimit:4;stroke-dasharray:none;stroke-dashoffset:0;stroke-opacity:1;-inkscape-stroke:none;stop-color:#000000;stop-opacity:1"
       id="rect1"
       width="270.93332"
       height="270.93332"
       x="0"
       y="0" />
    <g
       id="g4"
       transform="matrix(10.824801,0,0,10.824801,-1527.8189,-1443.5032)"
       style="display:inline;stroke-width:0.0923804"
       inkscape:export-filename="..\..\Downloads\Engineering Collaborative Council.svg"
       inkscape:export-xdpi="96"
       inkscape:export-ydpi="96">
      <path
         id="path3"
         style="fill:#034c8b;fill-rule:evenodd;stroke-width:0.315387;stroke-linecap:round"
         d="m 143.59807,141.04414 v 4.30476 l 0.46626,-0.46626 v -1.63053 l -1.4e-4,-1.4e-4 0.9785,-0.97851 c -0.0423,-0.0674 -0.0651,-0.14517 -0.0671,-0.22475 0,-0.24188 0.19608,-0.43796 0.43796,-0.43796 h 5e-5 c 0.24187,0 0.43795,0.19608 0.43795,0.43796 0,0.24187 -0.19608,0.43796 -0.43795,0.43796 -0.0495,-5e-4 -0.0985,-0.009 -0.14494,-0.0263 l -0.91239,0.91239 v 1.63105 h -1.9e-4 l -0.75804,0.75804 v 1.31793 l 1.35645,-1.35645 v -1.32013 c -0.17435,-0.0616 -0.2912,-0.22614 -0.29197,-0.41108 0,-0.24187 0.19608,-0.43796 0.43796,-0.43795 0.24187,-1e-5 0.43796,0.19608 0.43795,0.43795 -7.6e-4,0.18494 -0.11761,0.34943 -0.29197,0.41108 v 1.4411 l -5e-5,5e-5 -1.64837,1.64837 v 1.06706 l 0.58843,-0.58843 c -0.0421,-0.0683 -0.0645,-0.14673 -0.065,-0.2269 0,-0.24188 0.19608,-0.43796 0.43795,-0.43796 0.24188,0 0.43796,0.19608 0.43796,0.43796 0,0.24188 -0.19608,0.43797 -0.43796,0.43796 -0.0494,-5.9e-4 -0.0983,-0.01 -0.14469,-0.0264 l -0.81667,0.81672 v 0.53811 h 7.6378 c -0.89295,-0.56509 -1.58517,-1.39723 -1.97821,-2.37816 h -3.28038 v -0.79891 h 3.03853 c -0.0795,-0.34748 -0.12169,-0.70243 -0.12607,-1.05885 0.004,-0.35447 0.046,-0.70749 0.12455,-1.05317 h -3.03701 v -0.79634 h 3.27627 c 0.39139,-0.98149 1.08214,-1.81471 1.97406,-2.38126 z m 1.81517,0.8129 c -0.10583,-1e-5 -0.19163,0.0858 -0.19162,0.19162 0.002,0.0129 0.004,0.0256 0.008,0.0379 0.0177,0.088 0.0943,0.15175 0.18408,0.15372 0.0318,-9.8e-4 0.0629,-0.01 0.0904,-0.026 0.0612,-0.0328 0.10022,-0.0962 0.1012,-0.16561 1e-5,-0.10585 -0.0858,-0.19163 -0.19162,-0.19162 z m -0.31273,1.9435 c -0.1058,4e-5 -0.19151,0.0858 -0.19153,0.19157 9.8e-4,0.0439 0.017,0.0863 0.0456,0.11978 0.0356,0.0445 0.0891,0.0709 0.14598,0.0719 0.057,-10e-4 0.11044,-0.0275 0.14599,-0.0719 0.0285,-0.0335 0.0446,-0.0757 0.0456,-0.11978 -2e-5,-0.10575 -0.0858,-0.19153 -0.19153,-0.19157 h -5e-5 z m -0.54108,3.75228 c -0.10569,1.7e-4 -0.19129,0.0859 -0.19129,0.19162 0,0.0133 0.002,0.0265 0.006,0.0394 0.0185,0.0879 0.0956,0.15125 0.18537,0.15223 0.0319,-7.8e-4 0.0631,-0.01 0.0908,-0.0255 0.0612,-0.033 0.0999,-0.0966 0.10083,-0.16613 1e-5,-0.10573 -0.0856,-0.19145 -0.19129,-0.19162 z" />
      <path
         d="m 160.25494,141.04416 c -0.93475,0.007 -1.84119,0.3224 -2.57762,0.89813 -0.20999,0.16211 -0.40431,0.34362 -0.58033,0.54209 -0.0616,0.0702 -0.12091,0.14241 -0.17776,0.21652 -0.11394,0.14731 -0.21804,0.30201 -0.31161,0.46302 -0.0363,0.0637 -0.0709,0.12831 -0.10387,0.19379 -0.0985,0.19227 -0.1821,0.39183 -0.25012,0.59686 h -0.46457 -0.35295 -0.55603 -0.3421 -0.35605 -0.52969 -0.29972 l -0.76429,1.32344 0.76429,1.32291 h 0.29972 0.52969 0.35605 0.3421 0.55758 0.3514 0.46457 c 0.0674,0.2032 0.15018,0.40102 0.24754,0.5917 0.0337,0.0673 0.0692,0.13359 0.10645,0.19895 0.0926,0.15915 0.19548,0.3121 0.30799,0.45786 0.0542,0.0705 0.11051,0.13925 0.16898,0.20618 0.1768,0.20134 0.37234,0.38546 0.58395,0.54984 0.73788,0.58018 1.64777,0.89868 2.5864,0.90537 1.31001,-0.007 2.54293,-0.62084 3.33882,-1.66139 0.11188,-0.14497 0.21425,-0.29705 0.30644,-0.45527 h -3.55999 -1.02526 l -0.002,-0.003 -0.11473,-0.19895 -0.41754,-0.72347 -0.63924,-1.10794 -0.0486,-0.0837 0.0537,-0.093 0.64751,-1.12138 0.40721,-0.70538 0.11162,-0.19379 0.002,-0.003 h 1.02526 3.57859 c -0.0927,-0.16004 -0.19573,-0.31387 -0.30851,-0.46044 -0.80036,-1.04337 -2.04036,-1.65564 -3.35535,-1.65674 z"
         style="fill:#034c8b;fill-rule:evenodd;stroke-width:0.315386;stroke-linecap:round"
         id="path4" />
    </g>
    <g
       id="g6"
       transform="matrix(10.824801,0,0,10.824801,-1534.3121,-1451.8655)"
       style="display:inline;stroke-width:0.0923804">
      <path
         d="m 154.51667,141.81408 c -0.0884,0.006 -0.17669,0.0145 -0.26459,0.0258 -1.51192,0.0987 -2.85584,0.99805 -3.52381,2.358 -0.1248,0.25488 -0.22366,0.52167 -0.29508,0.79633 -0.094,0.34335 -0.14438,0.69721 -0.14986,1.05317 0.006,0.35795 0.0567,0.71374 0.15193,1.05885 0.0721,0.27564 0.17181,0.54331 0.29766,0.79891 0.66951,1.35517 2.01085,2.25058 3.51916,2.34921 0.0879,0.0116 0.17614,0.0204 0.26459,0.0264 0.94081,-0.007 1.85249,-0.32719 2.59105,-0.91002 -0.20671,-0.23201 -0.39147,-0.48268 -0.5519,-0.74879 -0.0837,-0.14866 -0.15975,-0.30147 -0.22789,-0.45786 h -1.19011 v -0.004 h -0.88574 -0.75447 l -0.11266,-0.19534 -1.09864,-1.90324 -0.007,-0.0119 0.007,-0.0119 1.10174,-1.90789 0.10956,-0.19017 h 0.75447 0.88574 v -0.004 h 1.18752 c 0.0687,-0.15818 0.14542,-0.31273 0.22996,-0.46302 0.16385,-0.27113 0.35297,-0.52617 0.56483,-0.76171 -0.74352,-0.58099 -1.65987,-0.89693 -2.60346,-0.89762 z"
         style="fill:#cfa715;fill-rule:evenodd;stroke-width:0.315386;stroke-linecap:round"
         id="path5" />
      <path
         d="m 160.37264,144.72708 -0.76378,1.32344 0.76378,1.32291 h 0.56741 0.88056 0.0801 l 0.76378,-1.32291 -0.76378,-1.32344 h -0.0801 -0.88056 z m 0.45837,0.79375 h 0.10904 0.50229 l 0.30593,0.52917 -0.30593,0.52968 h -0.50229 -0.10904 L 160.52509,146.05 Z"
         style="fill:#cfa715;fill-rule:evenodd;stroke-width:4.67381;stroke-linecap:round"
         id="path6" />
    </g>
    <text
       xml:space="preserve"
       transform="matrix(0.29998923,0,0,0.30433917,-22.401488,-37.868302)"
       id="text15"
       style="font-size:48px;line-height:0.9;font-family:'Microsoft YaHei';-inkscape-font-specification:'Microsoft YaHei';letter-spacing:3px;white-space:pre;shape-inside:url(#rect16);display:none;fill:#034c8b;fill-opacity:1;fill-rule:evenodd;stroke:none;stroke-width:11.2987;stroke-linecap:round"><tspan
         x="181.25"
         y="766.53"
         id="tspan2"><tspan
           style="font-family:'Tw Cen MT';-inkscape-font-specification:'Tw Cen MT'"
           id="tspan1">Engineering Collaborative Council</tspan></tspan></text>
    <path
       style="-inkscape-font-specification:'Tw Cen MT';display:inline;fill:#034c8b;fill-rule:evenodd;stroke-width:3.41397;stroke-linecap:round"
       d="m 28.431713,180.08382 h 4.963886 v 1.24114 h -3.754554 v 2.26827 h 3.754554 v 1.22687 h -3.754554 v 3.12423 h 3.754554 v 1.22687 h -4.963886 z m 6.960689,9.08738 v -5.88468 h 1.195268 v 0.97721 q 0.527324,-0.59203 0.956216,-0.86308 0.428892,-0.27819 0.956216,-0.27819 0.787471,0 1.342919,0.52784 0.56248,0.52784 0.56248,1.26966 v 4.25124 h -1.223392 v -3.88746 q 0,-0.4779 -0.309364,-0.79175 -0.302332,-0.31385 -0.773411,-0.31385 -0.611696,0 -1.054648,0.52783 -0.442952,0.52071 -0.442952,1.26254 v 3.20269 z m 12.26206,-5.88468 h 1.195268 v 5.64929 q 0,1.24827 -0.850751,2.11849 -0.84372,0.87735 -2.04602,0.87735 -0.914028,0 -1.680408,-0.50644 -0.766379,-0.4993 -1.124959,-1.52645 h 1.265579 q 0.569512,0.95582 1.581975,0.95582 0.689037,0 1.174176,-0.50644 0.48514,-0.49931 0.48514,-1.20547 v -1.11274 q -0.885907,1.30533 -2.235859,1.30533 -1.110896,0 -1.940555,-0.92728 -0.822628,-0.93442 -0.822628,-2.20408 0,-1.26967 0.801536,-2.17556 0.808564,-0.90588 1.919463,-0.90588 1.434323,0 2.278043,1.40519 z m 0.168744,2.93164 q 0,-0.82742 -0.569512,-1.38379 -0.56248,-0.55637 -1.399167,-0.55637 -0.76638,0 -1.349952,0.57777 -0.583575,0.57777 -0.583575,1.33386 0,0.82029 0.576543,1.41232 0.576541,0.59204 1.371044,0.59204 0.808564,0 1.378076,-0.57777 0.576543,-0.57777 0.576543,-1.39806 z m 3.620963,-4.86467 q 0,-0.38518 0.28124,-0.66337 0.28124,-0.28531 0.667944,-0.28531 0.379675,0 0.653883,0.28531 0.28124,0.27819 0.28124,0.66337 0,0.39231 -0.28124,0.6705 -0.274208,0.27818 -0.653883,0.27818 -0.386704,0 -0.667944,-0.27818 -0.28124,-0.27819 -0.28124,-0.6705 z m 0.344519,1.93303 h 1.209332 v 5.88468 h -1.209332 z m 3.712367,5.88468 v -5.88468 h 1.195268 v 0.97721 q 0.527324,-0.59203 0.956216,-0.86308 0.428892,-0.27819 0.956216,-0.27819 0.787471,0 1.342919,0.52784 0.56248,0.52784 0.56248,1.26966 v 4.25124 h -1.223392 v -3.88746 q 0,-0.4779 -0.309364,-0.79175 -0.302332,-0.31385 -0.773411,-0.31385 -0.611696,0 -1.054648,0.52783 -0.442952,0.52071 -0.442952,1.26254 v 3.20269 z m 13.225304,-2.70339 h -4.949822 q 0.161715,0.90589 0.731224,1.32673 0.576543,0.41371 1.251519,0.41371 1.040588,0 1.743687,-0.87735 l 0.892936,0.68476 q -1.005432,1.3196 -2.692871,1.3196 -1.293704,0 -2.165547,-0.89875 -0.871844,-0.89875 -0.871844,-2.23261 0,-1.24827 0.878875,-2.16129 0.885905,-0.92015 2.158516,-0.92015 1.251516,0 2.144455,0.93442 0.892936,0.92728 0.878872,2.41093 z m -4.823262,-0.99148 h 3.543622 q -0.590603,-1.2126 -1.743687,-1.2126 -1.258548,0 -1.799935,1.2126 z m 12.922972,0.99148 h -4.949823 q 0.161716,0.90589 0.731224,1.32673 0.576543,0.41371 1.251519,0.41371 1.040588,0 1.743688,-0.87735 l 0.892935,0.68476 q -1.005431,1.3196 -2.692871,1.3196 -1.293703,0 -2.165547,-0.89875 -0.871844,-0.89875 -0.871844,-2.23261 0,-1.24827 0.878876,-2.16129 0.885904,-0.92015 2.158515,-0.92015 1.251516,0 2.144455,0.93442 0.892936,0.92728 0.878873,2.41093 z m -4.823263,-0.99148 h 3.543623 q -0.590604,-1.2126 -1.743688,-1.2126 -1.258548,0 -1.799935,1.2126 z m 8.486413,-2.18981 v 1.2126 0 q 0.407799,-0.72756 0.794504,-1.04854 0.393735,-0.32812 1.019495,-0.32812 0.175773,0 0.506232,0.0856 l -0.372644,1.24113 q -0.351551,-0.0713 -0.464047,-0.0713 -0.618728,0 -1.040588,0.44224 -0.414828,0.43511 -0.414828,1.09134 v 3.25976 h -1.223392 v -5.88468 z m 4.113134,-1.93303 q 0,-0.38518 0.28124,-0.66337 0.28124,-0.28531 0.667944,-0.28531 0.379676,0 0.653884,0.28531 0.28124,0.27819 0.28124,0.66337 0,0.39231 -0.28124,0.6705 -0.274208,0.27818 -0.653884,0.27818 -0.386704,0 -0.667944,-0.27818 -0.28124,-0.27819 -0.28124,-0.6705 z m 0.34452,1.93303 h 1.209332 v 5.88468 h -1.209332 z m 3.712367,5.88468 v -5.88468 h 1.195268 v 0.97721 q 0.527324,-0.59203 0.956216,-0.86308 0.428891,-0.27819 0.956215,-0.27819 0.787472,0 1.34292,0.52784 0.56248,0.52784 0.56248,1.26966 v 4.25124 h -1.223392 v -3.88746 q 0,-0.4779 -0.309364,-0.79175 -0.302332,-0.31385 -0.773411,-0.31385 -0.611696,0 -1.054649,0.52783 -0.442952,0.52071 -0.442952,1.26254 v 3.20269 z m 12.26206,-5.88468 h 1.19527 v 5.64929 q 0,1.24827 -0.85075,2.11849 -0.84373,0.87735 -2.046025,0.87735 -0.91403,0 -1.68041,-0.50644 -0.76638,-0.4993 -1.12496,-1.52645 h 1.26558 q 0.56952,0.95582 1.58198,0.95582 0.68904,0 1.174165,-0.50644 0.48515,-0.49931 0.48515,-1.20547 v -1.11274 q -0.88591,1.30533 -2.235855,1.30533 -1.1109,0 -1.94056,-0.92728 -0.82263,-0.93442 -0.82263,-2.20408 0,-1.26967 0.80154,-2.17556 0.80856,-0.90588 1.91946,-0.90588 1.434315,0 2.278045,1.40519 z m 0.16875,2.93164 q 0,-0.82742 -0.56952,-1.38379 -0.562475,-0.55637 -1.399165,-0.55637 -0.76638,0 -1.34995,0.57777 -0.58358,0.57777 -0.58358,1.33386 0,0.82029 0.57655,1.41232 0.57654,0.59204 1.37104,0.59204 0.80856,0 1.378075,-0.57777 0.57655,-0.57777 0.57655,-1.39806 z m 16.0799,-5.82762 v 1.40519 q -1.44839,-0.72042 -2.66475,-0.72042 -1.56088,0 -2.62959,1.02714 -1.06871,1.02001 -1.06871,2.5108 0,1.51931 1.0898,2.53933 1.09684,1.01288 2.74209,1.01288 1.19527,0 2.53116,-0.76323 v 1.41946 q -1.21636,0.65623 -2.63662,0.65623 -2.08118,0 -3.55769,-1.42659 -1.47651,-1.43373 -1.47651,-3.45235 0,-1.98296 1.44839,-3.39528 1.45541,-1.41233 3.50143,-1.41233 1.3148,0 2.721,0.59917 z m 1.91243,5.81336 q 0,-1.20547 0.93512,-2.13989 0.94216,-0.94155 2.15852,-0.94155 1.25152,0 2.18664,0.92728 0.93512,0.92015 0.93512,2.15416 0,1.24113 -0.92106,2.18981 -0.91403,0.94155 -2.11633,0.94155 -1.28667,0 -2.23586,-0.93442 -0.94215,-0.93441 -0.94215,-2.19694 z m 5.03419,0 q 0,-0.74897 -0.56247,-1.2982 -0.56248,-0.55637 -1.3359,-0.55637 -0.7945,0 -1.37104,0.5635 -0.56951,0.55637 -0.56951,1.33386 0,0.74183 0.57654,1.2982 0.58357,0.55637 1.36401,0.55637 0.75935,0 1.32886,-0.57064 0.56951,-0.57063 0.56951,-1.32672 z m 3.56472,-6.29127 h 1.22339 v 9.25857 h -1.22339 z m 4.05689,0 h 1.22339 v 9.25857 h -1.22339 z m 8.76765,3.37389 h 1.22339 v 5.88468 h -1.22339 v -1.1698 q -0.89294,1.33386 -2.21476,1.33386 -1.14606,0 -1.96165,-0.91302 -0.80857,-0.91302 -0.80857,-2.21834 0,-1.23401 0.8156,-2.15416 0.82262,-0.92728 1.92649,-0.92728 0.68201,0 1.29371,0.37805 0.61169,0.37804 0.94918,0.98434 z m 0.16171,2.96017 q 0,-0.80602 -0.56951,-1.37666 -0.56951,-0.57777 -1.36401,-0.57777 -0.77341,0 -1.34995,0.57064 -0.57654,0.57064 -0.57654,1.341 0,0.83455 0.56248,1.41945 0.56248,0.5849 1.36401,0.5849 0.7945,0 1.36401,-0.57777 0.56951,-0.5849 0.56951,-1.38379 z m 3.98658,-6.33406 h 1.20933 v 4.53656 q 0.78044,-1.32673 2.23586,-1.32673 1.12496,0 1.94758,0.91302 0.82966,0.91302 0.82966,2.16842 0,1.25539 -0.8156,2.19694 -0.80856,0.93442 -1.89133,0.93442 -0.69607,0 -1.32183,-0.37805 -0.62576,-0.37804 -0.98434,-1.02714 v 1.24113 h -1.20933 z m 4.92873,6.29127 q 0,-0.80603 -0.56951,-1.37666 -0.56951,-0.57777 -1.37808,-0.57777 -0.78044,0 -1.35698,0.5849 -0.56951,0.57777 -0.56951,1.36953 0,0.82742 0.56951,1.39805 0.57654,0.56351 1.41323,0.56351 0.77341,0 1.32886,-0.57777 0.56248,-0.57777 0.56248,-1.38379 z m 3.403,0 q 0,-1.20547 0.93512,-2.13989 0.94216,-0.94155 2.15852,-0.94155 1.25152,0 2.18664,0.92728 0.93512,0.92015 0.93512,2.15416 0,1.24113 -0.92106,2.18981 -0.91403,0.94155 -2.11633,0.94155 -1.28667,0 -2.23586,-0.93442 -0.94215,-0.93441 -0.94215,-2.19694 z m 5.03419,0 q 0,-0.74897 -0.56248,-1.2982 -0.56248,-0.55637 -1.33588,-0.55637 -0.79451,0 -1.37105,0.5635 -0.56951,0.55637 -0.56951,1.33386 0,0.74183 0.57654,1.2982 0.58358,0.55637 1.36402,0.55637 0.75934,0 1.32886,-0.57064 0.5695,-0.57063 0.5695,-1.32672 z m 4.74593,-2.91738 v 1.2126 0 q 0.4078,-0.72756 0.7945,-1.04854 0.39374,-0.32812 1.0195,-0.32812 0.17577,0 0.50623,0.0856 l -0.37265,1.24113 q -0.35155,-0.0713 -0.46404,-0.0713 -0.61873,0 -1.04059,0.44224 -0.41483,0.43511 -0.41483,1.09134 v 3.25976 h -1.22339 v -5.88468 z m 9.08405,0 h 1.22339 v 5.88468 h -1.22339 v -1.1698 q -0.89294,1.33386 -2.21477,1.33386 -1.14605,0 -1.96165,-0.91302 -0.80856,-0.91302 -0.80856,-2.21834 0,-1.23401 0.8156,-2.15416 0.82262,-0.92728 1.92649,-0.92728 0.68201,0 1.2937,0.37805 0.6117,0.37804 0.94919,0.98434 z m 0.16171,2.96017 q 0,-0.80602 -0.56951,-1.37666 -0.56951,-0.57777 -1.36401,-0.57777 -0.77341,0 -1.34995,0.57064 -0.57655,0.57064 -0.57655,1.341 0,0.83455 0.56248,1.41945 0.56248,0.5849 1.36402,0.5849 0.7945,0 1.36401,-0.57777 0.56951,-0.5849 0.56951,-1.38379 z m 4.19047,-4.67208 h 1.2234 v 1.71191 h 1.20933 v 1.13414 h -1.20933 v 4.75054 h -1.2234 v -4.75054 h -0.96324 v -1.14841 h 0.96324 z m 4.18345,-0.22112 q 0,-0.38518 0.28124,-0.66337 0.28124,-0.28531 0.66794,-0.28531 0.37968,0 0.65389,0.28531 0.28124,0.27819 0.28124,0.66337 0,0.39231 -0.28124,0.6705 -0.27421,0.27818 -0.65389,0.27818 -0.3867,0 -0.66794,-0.27818 -0.28124,-0.27819 -0.28124,-0.6705 z m 0.34452,1.93303 h 1.20933 v 5.88468 h -1.20933 z m 3.33972,0 h 1.27964 l 1.65932,3.40242 1.6101,-3.40242 h 1.2937 l -2.9249,6.1058 z m 13.30968,3.18129 h -4.94982 q 0.16171,0.90589 0.73122,1.32673 0.57654,0.41371 1.25152,0.41371 1.04058,0 1.74368,-0.87735 l 0.89294,0.68476 q -1.00543,1.3196 -2.69287,1.3196 -1.2937,0 -2.16555,-0.89875 -0.87184,-0.89875 -0.87184,-2.23261 0,-1.24827 0.87887,-2.16129 0.88591,-0.92015 2.15852,-0.92015 1.25152,0 2.14445,0.93442 0.89294,0.92728 0.87888,2.41093 z m -4.82327,-0.99148 h 3.54363 q -0.59061,-1.2126 -1.74369,-1.2126 -1.25855,0 -1.79994,1.2126 z m 19.36337,-5.08579 v 1.40519 q -1.44838,-0.72042 -2.66474,-0.72042 -1.56089,0 -2.6296,1.02714 -1.06871,1.02001 -1.06871,2.5108 0,1.51931 1.0898,2.53933 1.09684,1.01288 2.74209,1.01288 1.19527,0 2.53116,-0.76323 v 1.41946 q -1.21636,0.65623 -2.63662,0.65623 -2.08118,0 -3.55769,-1.42659 -1.47651,-1.43373 -1.47651,-3.45235 0,-1.98296 1.44839,-3.39528 1.45541,-1.41233 3.50144,-1.41233 1.31479,0 2.72099,0.59917 z m 1.91243,5.81336 q 0,-1.20547 0.93513,-2.13989 0.94215,-0.94155 2.15851,-0.94155 1.25152,0 2.18664,0.92728 0.93513,0.92015 0.93513,2.15416 0,1.24113 -0.92106,2.18981 -0.91404,0.94155 -2.11634,0.94155 -1.28667,0 -2.23585,-0.93442 -0.94216,-0.93441 -0.94216,-2.19694 z m 5.0342,0 q 0,-0.74897 -0.56248,-1.2982 -0.56248,-0.55637 -1.33589,-0.55637 -0.7945,0 -1.37105,0.5635 -0.56951,0.55637 -0.56951,1.33386 0,0.74183 0.57655,1.2982 0.58357,0.55637 1.36401,0.55637 0.75935,0 1.32886,-0.57064 0.56951,-0.57063 0.56951,-1.32672 z m 3.17801,-2.91738 h 1.22339 v 3.31682 q 0,1.53358 1.32886,1.53358 0.5906,0 0.93512,-0.40658 0.34452,-0.4137 0.34452,-1.127 v -3.31682 h 1.20934 v 3.51654 q 0,1.10561 -0.71014,1.8189 -0.71013,0.7133 -1.814,0.7133 -1.12495,0 -1.82102,-0.7133 -0.69607,-0.71329 -0.69607,-1.8617 z m 7.19271,5.88468 v -5.88468 h 1.19527 v 0.97721 q 0.52732,-0.59203 0.95622,-0.86308 0.42888,-0.27819 0.95621,-0.27819 0.78747,0 1.34292,0.52784 0.56248,0.52784 0.56248,1.26966 v 4.25124 h -1.22339 v -3.88746 q 0,-0.4779 -0.30937,-0.79175 -0.30233,-0.31385 -0.77341,-0.31385 -0.61169,0 -1.05465,0.52783 -0.44295,0.52071 -0.44295,1.26254 v 3.20269 z m 11.78395,-1.7975 v 1.41945 q -0.93512,0.54211 -1.814,0.54211 -1.2023,0 -2.10929,-0.91302 -0.89997,-0.92015 -0.89997,-2.12562 0,-1.36952 0.89997,-2.26828 0.89996,-0.90588 2.25694,-0.90588 0.80857,0 1.66635,0.42798 v 1.38379 q -0.92106,-0.59917 -1.74369,-0.59917 -0.75934,0 -1.32886,0.5421 -0.5695,0.54211 -0.5695,1.26967 0,0.82029 0.53435,1.38379 0.53436,0.55637 1.30777,0.55637 0.78747,0 1.79993,-0.71329 z m 1.86322,-6.02021 q 0,-0.38518 0.28124,-0.66337 0.28124,-0.28531 0.66794,-0.28531 0.37968,0 0.65388,0.28531 0.28124,0.27819 0.28124,0.66337 0,0.39231 -0.28124,0.6705 -0.2742,0.27818 -0.65388,0.27818 -0.3867,0 -0.66794,-0.27818 -0.28124,-0.27819 -0.28124,-0.6705 z m 0.34452,1.93303 h 1.20933 v 5.88468 h -1.20933 z m 4.11313,-3.37389 h 1.22339 v 9.25857 h -1.22339 z"
       id="path16"
       aria-label="Engineering Collaborative Council" />
  </g>
</svg>
